<?xml version="1.0" encoding="utf-8"?>
<!-- Generator: Adobe Illustrator 14.0.0, SVG Export Plug-In . SVG Version: 6.00 Build 43363)  -->
<!DOCTYPE svg PUBLIC "-//W3C//DTD SVG 1.1//EN" "http://www.w3.org/Graphics/SVG/1.1/DTD/svg11.dtd">
<svg version="1.1" id="Layer_1" xmlns="http://www.w3.org/2000/svg" xmlns:xlink="http://www.w3.org/1999/xlink" x="0px" y="0px"
	 width="160.333px" height="106.516px" viewBox="0 0 160.333 106.516" enable-background="new 0 0 160.333 106.516"
	 xml:space="preserve">
<g id="Cartoon">
	<defs>
		<rect id="SVGID_1_" x="6.386" y="7.287" width="147.562" height="69.537"/>
	</defs>
	<clipPath id="SVGID_2_">
		<use xlink:href="#SVGID_1_"  overflow="visible"/>
	</clipPath>
	<rect x="7.193" y="6.414" clip-path="url(#SVGID_2_)" fill="#FFFFFF" width="147.118" height="70.41"/>
	<rect x="-8.732" y="38.669" opacity="0.5" clip-path="url(#SVGID_2_)" fill="#85A3C2" width="163.043" height="38.155"/>
	<rect x="-9.245" y="6.414" opacity="0.5" clip-path="url(#SVGID_2_)" fill="#FFC285" width="163.204" height="32.634"/>
	<g id="Dermis_3_" display="none" clip-path="url(#SVGID_2_)">
		<g id="cyto_29_" display="inline">
			<path fill="#85A3C2" stroke="#85A3C2" stroke-width="1.0639" d="M151.114,74.815c3.711-0.352,6.844-0.836,6.852-1.368
				c0.004-0.519-3.104,0.09-6.664-0.334c-1.994-1.518-10.623-2.415-13.875-0.151c-3.555,0.352-7.566-0.511-7.571,0.007
				c-0.007,0.517,6.704,1.382,7.921,1.676C143.231,76.771,147.883,76.08,151.114,74.815z"/>
			<path fill="#85A3C2" stroke="#85A3C2" stroke-width="1.0639" d="M53.263,68.414c4.271-0.348,7.876-0.823,7.885-1.357
				c0.003-0.517-3.576,0.086-7.671-0.347c-2.299-1.518-12.23-2.429-15.972-0.172c-4.089,0.345-8.707,2.542-8.712,3.059
				c-0.006,0.519,7.72-1.668,9.119-1.375C43.789,71.382,49.547,69.673,53.263,68.414z"/>
		</g>
		<g id="nuclei_25_" display="inline">
			<ellipse fill="#ADC2D6" cx="44.965" cy="67.75" rx="3.58" ry="1"/>
			<ellipse fill="#ADC2D6" cx="143.91" cy="73.803" rx="3.58" ry="0.998"/>
		</g>
	</g>
	<g id="RFP_x2B__dermis_3_" clip-path="url(#SVGID_2_)">
		<g id="cyto_28_">
			<path fill="#336699" stroke="#264D73" stroke-width="0.6306" d="M31.517,48.881c3.665-0.725,8.52,0.597,8.476-0.03
				c-0.045-0.609-4.864-1.782-8.45-1.982c-1.829-3.689-6.865-3.689-13.841,0.992c-3.508,0.709-7.161-0.391-7.117,0.216
				c0.044,0.611,3.235,1.797,6.766,2.002c3.303,1.113,7.523,0.812,7.523,0.812S28.417,50.636,31.517,48.881z"/>
			<path fill="#336699" stroke="#264D73" stroke-width="0.6306" d="M12.669,43.379c3.732-0.044,6.9-0.284,6.963-0.863
				c0.058-0.563-3.102-0.184-6.603-0.974c-1.83-1.831-10.333-3.593-13.802-1.428c-3.575,0.058-7.481-1.248-7.541-0.686
				c-0.058,0.564,6.536,2.119,7.717,2.55C4.622,44.789,9.323,44.46,12.669,43.379z"/>
			<path fill="#336699" stroke="#264D73" stroke-width="0.6306" d="M148.032,42.248c-3.466-1-8.245-0.046-8.149-0.667
				c0.093-0.602,4.826-1.411,8.29-1.34c2.185-1.444,7.016-1.475,13.235,2.026c3.313,0.971,6.919,0.148,6.826,0.75
				c-0.092,0.603-3.262,1.547-6.673,1.487c-3.271,0.862-7.304,0.242-7.304,0.242S150.869,44.227,148.032,42.248z"/>
			<path fill="#336699" stroke="#264D73" stroke-width="0.6306" d="M139.419,48.994c3.476-0.631,8.108-1.364,8.072-1.897
				c-0.036-0.516-5.125-0.005-8.516-0.159c-2.004-1.361-7.745-4.697-10.909,1.233c-3.327,0.619-7.181,0.063-7.146,0.579
				c0.035,0.518,6.438,0.87,7.61,1.072C132.022,52.151,136.472,50.501,139.419,48.994z"/>
			<path fill="#336699" stroke="#264D73" stroke-width="0.6306" d="M48.992,44.934c3.711-0.352,7.595,1.727,7.602,1.194
				c0.003-0.519-3.549-3.562-7.108-3.988c-1.994-1.515-7.696-3.034-11.706-0.152c-3.551,0.351-6.168-0.044-6.172,0.471
				c-0.008,0.521,5.902,1.264,7.119,1.557C43.561,46.487,45.759,46.199,48.992,44.934z"/>
			<path fill="#336699" stroke="#264D73" stroke-width="0.6306" d="M119.713,43.984c2.731-1.073,6.71-0.244,6.577-0.856
				c-0.133-0.596-4.062-1.286-6.878-1.131c-3.517-2.313-9.395-0.824-10.593,2.329c-2.61,1.043-4.784,2.887-4.655,3.482
				c0.133,0.596,1.963-1.119,4.737-1.26c2.743,0.775,5.972,0.065,5.972,0.065S117.587,46.018,119.713,43.984z"/>
			<path fill="#336699" stroke="#264D73" stroke-width="0.6306" d="M1.548,63.171c-3.475-0.631-8.107-1.363-8.072-1.896
				c0.037-0.517,5.126-0.004,8.517-0.16c2.004-1.359,7.745-4.696,10.909,1.234c3.327,0.618,7.181,0.063,7.146,0.58
				C20.013,63.448,13.609,63.8,12.438,64C8.947,66.329,4.497,64.679,1.548,63.171z"/>
			<path fill="#336699" stroke="#264D73" stroke-width="0.6306" d="M54.114,61.944c3.474-0.631,8.107-1.364,8.071-1.896
				c-0.036-0.517-5.125-0.005-8.517-0.16c-2.004-1.36-7.744-4.696-10.909,1.234c-3.326,0.618-7.18,0.063-7.146,0.58
				c0.035,0.517,6.438,0.869,7.61,1.071C46.715,65.102,51.165,63.452,54.114,61.944z"/>
			<path fill="#336699" stroke="#264D73" stroke-width="0.6306" d="M159.875,57.488c3.665-0.726,8.52,0.596,8.476-0.031
				c-0.045-0.609-4.864-1.783-8.45-1.982c-1.829-3.69-6.865-3.69-13.841,0.992c-3.508,0.709-7.161-0.391-7.117,0.216
				c0.044,0.61,3.235,1.797,6.766,2.002c3.303,1.113,7.523,0.813,7.523,0.813S156.775,59.243,159.875,57.488z"/>
		</g>
		<g id="nuclei_24_">
			
				<ellipse id="nucleus_30_" transform="matrix(0.9603 -0.2789 0.2789 0.9603 -7.9427 33.6822)" fill="#85A3C2" cx="114.386" cy="44.751" rx="4.216" ry="1.338"/>
			
				<ellipse id="nucleus_29_" transform="matrix(0.9604 -0.2785 0.2785 0.9604 -8.3809 39.0406)" fill="#85A3C2" cx="133.197" cy="49.013" rx="3.163" ry="1.337"/>
			
				<ellipse id="nucleus_28_" transform="matrix(0.9864 0.1645 -0.1645 0.9864 9.1758 -24.7822)" fill="#85A3C2" cx="154.22" cy="43.011" rx="4.217" ry="1.338"/>
			
				<ellipse id="nucleus_27_" transform="matrix(0.9807 -0.1957 0.1957 0.9807 -9.124 5.7327)" fill="#85A3C2" cx="24.446" cy="49.034" rx="4.216" ry="1.338"/>
			
				<ellipse id="nucleus_26_" transform="matrix(0.974 0.2265 -0.2265 0.974 11.0284 -8.6815)" fill="#85A3C2" cx="43.349" cy="43.721" rx="3.334" ry="1.336"/>
			<path id="nucleus_25_" fill="#85A3C2" d="M9.794,42.373c-0.161,0.721-2.133,0.898-4.407,0.398
				c-2.272-0.502-3.987-1.495-3.826-2.215c0.157-0.722,2.129-0.898,4.403-0.396C8.238,40.66,9.953,41.652,9.794,42.373z"/>
			
				<ellipse id="nucleus_2_" transform="matrix(-0.9603 -0.2788 0.2788 -0.9603 -2.3838 126.0443)" fill="#85A3C2" cx="7.772" cy="63.192" rx="3.164" ry="1.338"/>
			<path id="nucleus_1_" fill="#85A3C2" d="M50.928,61.083c0.205,0.708-0.987,1.678-2.667,2.166
				c-1.678,0.486-3.206,0.308-3.41-0.404c-0.205-0.708,0.985-1.678,2.665-2.164C49.195,60.191,50.721,60.373,50.928,61.083z"/>
			
				<ellipse id="nucleus_3_" transform="matrix(0.9807 -0.1957 0.1957 0.9807 -8.326 31.0208)" fill="#85A3C2" cx="152.804" cy="57.641" rx="4.216" ry="1.337"/>
		</g>
	</g>
	<g id="Condensate_4_" clip-path="url(#SVGID_2_)">
		<g id="cyto_27_">
			<path fill="#009966" stroke="#00734D" stroke-width="0.8408" d="M68.424,50.603c1.533,2.729,5.182,2.813,4.502,3.417
				c-0.662,0.587-4.134,0.374-6.583-1.382c-2.138-0.204-3.56-0.667-4.981-2.191c-0.856-1.158-1.943-3.437-2.762-6.052
				c-1.908-6.891-0.836-2.299,1.806-1.562c0.87,0.184,1.612,0.431,2.319,0.594c1.923,0.444,3.43,1.839,3.43,1.839
				C66.156,45.265,68.319,47.149,68.424,50.603z"/>
			<path fill="#009966" stroke="#00734D" stroke-width="0.8408" d="M83.618,59.788c3.399,0.104,7.226-3.403,7.348-4.078
				c0.12-0.659-3.712,3.013-6.805,1.945c-1.452-2.219-5.72-3.84-12.389-2.245c-3.258-0.081-6.177-2.122-6.294-1.465
				c-0.119,0.656,2.371,2.681,5.409,3.741c2.61,1.971,6.387,2.655,6.387,2.655S80.446,60.916,83.618,59.788z"/>
			<path fill="#009966" stroke="#00734D" stroke-width="0.8408" d="M79.873,50.984c2.06,2.604,8.619,7.076-1.532,1.93
				c-6.069,0.504-9.252-3.438-9.12-8.166c-0.955-1.221-5.805-1.854-6.753-3.185c0.252-0.503,6.654,1.294,9.582,2.435
				C75.265,44.663,79.01,47.699,79.873,50.984z"/>
			<path fill="#009966" stroke="#00734D" stroke-width="0.8408" d="M93.895,45.679c1.193-2.88,6.359-2.976,5.668-3.442
				c-0.67-0.451-5.816,0.119-7.958,2.221c-2.646,0.745-6.161,3.425-6.376,9.505c0.27,0.799-0.836,2.646-0.428,2.896
				c0.99-0.138,2.794-2.026,3.099-2.221c3.259-0.325,4.452-2.809,4.409-2.809C92.309,51.828,94.101,49.014,93.895,45.679z"/>
			<path fill="#009966" stroke="#00734D" stroke-width="0.8408" d="M101.618,46.61c1.42-3.257,1.629-5.36,1.904-6.774
				c-0.16,0.297-1.582,2.103-3.896,3.83c-3.274,1.622-4.684,1.525-5.313,8.829c-0.428,1.596-1.776,4.002-3.344,5.151
				c0.351,0.321,2.316-1.45,4.814-3.333C98.211,52.037,100.747,48.604,101.618,46.61z"/>
			<path fill="#009966" stroke="#00734D" stroke-width="0.8408" d="M79.02,44.036c-0.965-0.139-4.822-0.834-4.83-0.537
				c-0.01,0.498,4.409,1.589,5.156,2.933c2.316,6.424,4.034,7.383,7.042-0.959c0.255-0.481,4.091-1.862,4.035-2.174
				c-0.476-0.434-4.62,0.619-4.838,0.552C83.645,42.867,81.141,42.834,79.02,44.036z"/>
		</g>
		<g id="nuclei_23_">
			<ellipse fill="#66C2A3" cx="64.036" cy="48.554" rx="1.925" ry="2.102"/>
			<ellipse fill="#66C2A3" cx="97.668" cy="48.276" rx="1.503" ry="1.745"/>
			<ellipse fill="#66C2A3" cx="89.555" cy="50.024" rx="1.925" ry="2.102"/>
			<ellipse fill="#66C2A3" cx="74.19" cy="49.477" rx="1.924" ry="2.101"/>
			<ellipse fill="#66C2A3" cx="82.762" cy="47.305" rx="1.469" ry="2.104"/>
			<path fill="#66C2A3" d="M80.146,57.685c0,1.159-0.861,2.1-1.924,2.1c-1.064,0-1.925-0.94-1.925-2.1
				c0-1.163,0.86-2.105,1.925-2.105C79.285,55.58,80.146,56.522,80.146,57.685z"/>
		</g>
	</g>
	<g id="Basal_epidermis_3_" clip-path="url(#SVGID_2_)">
		<g id="cyto_25_">
			<path fill="#FF9933" stroke="#BF7326" stroke-width="0.4579" d="M33.122,32.388c0,3.198,0,7.417-4.745,5.792h-7.49
				c-5.575,1.424-4.742-2.594-4.742-5.792l0,0c0-3.2-1-6.224,4.742-5.795h7.49C33.122,24.967,33.122,29.188,33.122,32.388
				L33.122,32.388z"/>
			<path fill="#FF9933" stroke="#BF7326" stroke-width="0.469" d="M49.972,32.35c0,3.2,0.996,6.812-4.698,5.793h-7.421
				c-5.022,2.033-4.697-2.594-4.697-5.793l0,0c0-3.197-1.149-6.808,4.697-5.792h7.421C51.791,24.728,49.972,29.153,49.972,32.35
				L49.972,32.35z"/>
			<path fill="#FF9933" stroke="#BF7326" stroke-width="0.4486" d="M111.571,32.35c0,3.2-0.912,6.812,4.297,5.793h6.789
				c4.595,2.033,4.298-2.594,4.298-5.793l0,0c0-3.197,1.051-6.808-4.298-5.792h-3.422h-3.367
				C109.904,24.728,111.571,29.153,111.571,32.35L111.571,32.35z"/>
			<path fill="#FF9933" stroke="#BF7326" stroke-width="0.4735" d="M144.124,32.316c0,3.201,0.235,7.828-4.798,5.794h-7.574
				c-5.809,2.034-4.797-2.593-4.797-5.794l0,0c0-3.199-1.179-7.418,4.797-5.791h7.574C145.974,24.897,144.124,29.117,144.124,32.316
				L144.124,32.316z"/>
			<path fill="#FF9933" stroke="#BF7326" stroke-width="0.4486" d="M1.274,31.9c0,3.2-0.911,6.813,4.298,5.794h6.788
				c4.595,2.032,4.298-2.595,4.298-5.794l0,0c0-3.198,1.052-6.808-4.298-5.792H8.939H5.572C-0.391,24.28,1.274,28.702,1.274,31.9
				L1.274,31.9z"/>
			<path fill="#FF9933" stroke="#BF7326" stroke-width="0.4735" d="M161.623,31.866c0,3.2,0.238,7.828-4.797,5.794h-7.575
				c-5.807,2.034-4.798-2.594-4.798-5.794l0,0c0-3.199-1.177-7.417,4.798-5.792h7.575C163.475,24.449,161.623,28.667,161.623,31.866
				L161.623,31.866z"/>
		</g>
		<g id="nuclei_21_">
			<ellipse fill="#FFC285" cx="24.893" cy="34.597" rx="5.334" ry="1.291"/>
			<ellipse fill="#FFC285" cx="41.796" cy="35.22" rx="5.334" ry="1.29"/>
			<ellipse fill="#FFC285" cx="118.738" cy="35.888" rx="5.334" ry="1.29"/>
			<ellipse fill="#FFC285" cx="135.268" cy="35.437" rx="5.334" ry="1.289"/>
			<ellipse fill="#FFC285" cx="8.442" cy="35.438" rx="5.334" ry="1.289"/>
			<ellipse fill="#FFC285" cx="152.766" cy="34.987" rx="5.334" ry="1.289"/>
		</g>
	</g>
	<g id="Epidermis_3_" clip-path="url(#SVGID_2_)">
		<g id="cyto_24_">
			<path fill="#FF9933" stroke="#BF7326" stroke-width="0.5592" d="M24.078,20.682c0,2.775,0,6.433-5.171,5.024h-8.163
				c-6.076,1.234-5.169-2.249-5.169-5.024l0,0c0-2.773-1.088-5.396,5.169-5.021h8.163C24.078,14.248,24.078,17.908,24.078,20.682
				L24.078,20.682z"/>
			<path fill="#FF9933" stroke="#BF7326" stroke-width="0.5592" d="M45.93,20.71c0,2.775,1.266,5.907-5.975,5.023h-9.432
				c-6.385,1.763-5.973-2.248-5.973-5.023l0,0c0-2.774-1.462-5.904,5.973-5.023h9.432C48.243,14.1,45.93,17.936,45.93,20.71
				L45.93,20.71z"/>
			<path fill="#FF9933" stroke="#BF7326" stroke-width="0.5592" d="M68.957,20.71c0,2.775,0,6.434-6.323,5.025h-9.992
				c-7.434,1.234-6.325-2.25-6.325-5.025l0,0c0-2.773-1.332-5.395,6.325-5.021h9.992C68.957,14.279,68.957,17.937,68.957,20.71
				L68.957,20.71z"/>
			<path fill="#FF9933" stroke="#BF7326" stroke-width="0.5592" d="M90.811,20.741c0,2.774,1.262,5.905-5.974,5.022h-9.434
				c-6.385,1.764-5.972-2.248-5.972-5.022l0,0c0-2.776-1.462-5.905,5.972-5.024h9.434C93.123,14.129,90.811,17.965,90.811,20.741
				L90.811,20.741z"/>
			<path fill="#FF9933" stroke="#BF7326" stroke-width="0.5592" d="M113.837,20.593c0,2.774,0,6.434-6.326,5.023h-9.99
				c-7.435,1.235-6.324-2.249-6.324-5.023l0,0c0-2.774-1.332-5.396,6.324-5.022h9.99C113.837,14.159,113.837,17.818,113.837,20.593
				L113.837,20.593z"/>
			<path fill="#FF9933" stroke="#BF7326" stroke-width="0.5592" d="M135.692,20.621c0,2.775,1.265,5.907-5.976,5.024h-9.433
				c-6.385,1.764-5.974-2.249-5.974-5.024l0,0c0-2.773-1.46-5.905,5.974-5.021h9.433C138.002,14.013,135.692,17.848,135.692,20.621
				L135.692,20.621z"/>
			<path fill="#FF9933" stroke="#BF7326" stroke-width="0.5592" d="M158.716,20.621c0,2.776,0,6.434-6.324,5.025h-9.991
				c-7.436,1.234-6.325-2.249-6.325-5.025l0,0c0-2.772-1.332-5.394,6.325-5.021h9.991C158.716,14.188,158.716,17.849,158.716,20.621
				L158.716,20.621z"/>
		</g>
		<g id="nuclei_20_">
			<ellipse fill="#FFC285" cx="14.414" cy="22.005" rx="5.965" ry="1.443"/>
			<ellipse fill="#FFC285" cx="56.539" cy="23.448" rx="5.965" ry="1.443"/>
			<ellipse fill="#FFC285" cx="145.937" cy="22.214" rx="5.965" ry="1.443"/>
			<ellipse fill="#FFC285" cx="127.139" cy="23.448" rx="5.964" ry="1.443"/>
			<ellipse fill="#FFC285" cx="99.462" cy="22.005" rx="5.964" ry="1.443"/>
			<ellipse fill="#FFC285" cx="80.618" cy="22.005" rx="5.964" ry="1.443"/>
			<ellipse fill="#FFC285" cx="38.594" cy="22.005" rx="5.964" ry="1.443"/>
		</g>
	</g>
	<g id="Placode_4_" clip-path="url(#SVGID_2_)">
		<g id="cyto_26_">
			<path fill="#CC3333" stroke="#992626" stroke-width="0.4893" d="M62.439,32.926c0,3.703,0.734,7.886-3.464,6.707h-5.467
				c-5.688-1.669-3.462-3.004-3.462-6.707l0,0c0-3.707-0.848-7.886,3.462-6.71h5.467C63.778,24.097,62.439,29.219,62.439,32.926
				L62.439,32.926z"/>
			<path fill="#CC3333" stroke="#992626" stroke-width="0.4783" d="M74.684,33.581c0,4.14,0.193,9.334-3.337,7.495h-5.263
				c-4.271,0.512-3.337-3.355-3.337-7.495l0,0c0-4.138-1.171-9.333,3.337-7.492h5.263C76.086,25.579,74.684,29.442,74.684,33.581
				L74.684,33.581z"/>
			<path fill="#CC3333" stroke="#992626" stroke-width="0.4622" d="M86.102,33.103c0,3.866,0.179,8.863-3.396,8.577l-4.665-0.031
				c-3.928,0.479-2.918-4.68-2.918-8.545l0,0c0-3.867-0.836-7.356,3.067-6.999h4.845C87.369,27.432,86.102,29.235,86.102,33.103
				L86.102,33.103z"/>
			<path fill="#CC3333" stroke="#992626" stroke-width="0.4893" d="M98.715,32.926c0,3.703-0.735,7.886,3.462,6.707h5.468
				c5.687-1.669,3.461-3.004,3.461-6.707l0,0c0-3.707,0.848-7.886-3.461-6.71h-5.468C97.372,24.097,98.715,29.219,98.715,32.926
				L98.715,32.926z"/>
			<path fill="#CC3333" stroke="#992626" stroke-width="0.4783" d="M86.469,33.581c0,4.14-0.192,9.334,3.336,7.495h5.266
				c4.268,0.512,3.334-3.355,3.334-7.495l0,0c0-4.138,1.169-9.333-3.334-7.492h-5.266C85.065,25.579,86.469,29.442,86.469,33.581
				L86.469,33.581z"/>
		</g>
		<g id="nuclei_22_">
			<circle fill="#E08585" cx="56.22" cy="35.195" r="2.936"/>
			<ellipse fill="#E08585" cx="104.71" cy="35.577" rx="2.937" ry="2.455"/>
			<ellipse fill="#E08585" cx="92.181" cy="36.303" rx="2.382" ry="2.707"/>
			<path fill="#E08585" d="M82.722,36.395c0,1.445-1.145,2.615-2.555,2.615c-1.408,0-2.552-1.17-2.552-2.615
				c0-1.448,1.144-2.619,2.552-2.619C81.578,33.776,82.722,34.947,82.722,36.395z"/>
			<ellipse fill="#E08585" cx="68.612" cy="36.267" rx="2.854" ry="2.742"/>
		</g>
	</g>
	<g id="Mc" clip-path="url(#SVGID_2_)">
		<path fill="#CCCC33" stroke="#999926" stroke-width="0.6306" d="M138.096,23.951c-1.28,3.183-3.146,5.682-7.34,4.688l-5.779,3.491
			c-5.945,0,2.177-2.086,2.177-5.214l0.121-1.565c1.847-4.42,4.093-4.654,8.659-3.027l5.59-1.627
			C147.25,21.346,138.096,23.951,138.096,23.951z"/>
		
			<ellipse transform="matrix(0.9729 -0.2313 0.2313 0.9729 -2.3242 31.3348)" fill="#E0E085" cx="132.444" cy="25.577" rx="3.363" ry="1.627"/>
	</g>
	<g id="DC_x2F_Sch" display="none" clip-path="url(#SVGID_2_)">
		<path display="inline" fill="#66C2A3" stroke="#66C2A3" stroke-width="0.8408" d="M72.573,73.263
			c2.959,1.966,4.994,2.537,6.339,3.054c-0.266-0.209-1.797-1.923-3.097-4.502c-1.026-3.507-0.686-4.877-7.769-6.77
			c-1.495-0.699-3.631-2.444-4.49-4.187c-0.377,0.288,1.025,2.534,2.445,5.32C67.82,68.966,70.758,72.058,72.573,73.263z"/>
		
			<ellipse transform="matrix(-0.1742 0.9847 -0.9847 -0.1742 152.1182 10.5942)" display="inline" fill="#99D6C2" cx="71.617" cy="69.084" rx="1.503" ry="1.743"/>
		<path display="inline" fill="#66C2A3" stroke="#66C2A3" stroke-width="0.8408" d="M119.786,70.472
			c3.083-0.53,4.387-3.939,4.725-3.096c0.333,0.82-1.03,4.018-3.506,5.74c-0.908,1.944-1.823,3.132-3.734,3.958
			c-1.377,0.419-3.888,0.682-6.629,0.578c-7.131-0.512-2.446,0.016-0.866-2.227c0.464-0.757,0.946-1.373,1.337-1.986
			c1.062-1.663,2.883-2.615,2.883-2.615C113.995,70.822,116.494,69.415,119.786,70.472z"/>
		
			<ellipse transform="matrix(0.3353 -0.9421 0.9421 0.3353 7.7144 158.7782)" display="inline" fill="#99D6C2" cx="116.384" cy="73.922" rx="1.925" ry="2.1"/>
	</g>
	<g id="Sch" clip-path="url(#SVGID_2_)">
		<path fill="#996699" stroke="#734D73" stroke-width="0.8408" d="M53.268,73.721c3.363,0.503,7.573-2.528,7.775-3.187
			c0.195-0.64-4.043,2.557-6.987,1.133c-1.181-2.375-5.228-4.487-12.039-3.688c-3.226-0.462-5.882-2.833-6.078-2.193
			c-0.195,0.638,2.039,2.939,4.936,4.35c2.357,2.263,6.026,3.389,6.026,3.389S49.985,74.469,53.268,73.721z"/>
		
			<ellipse transform="matrix(0.9808 0.1949 -0.1949 0.9808 14.771 -7.8692)" fill="#C2A3C2" cx="47.367" cy="71.112" rx="3.579" ry="1"/>
		<path fill="#996699" stroke="#734D73" stroke-width="0.8408" d="M114.596,63.694c-3.387,0.305-5.521,0.89-7.275,3.019
			c-0.038,0.667,3.797-1.526,6.994-0.836c1.708,2.028,6.14,3.125,12.569,0.741c3.244-0.312,6.384,1.364,6.425,0.697
			c0.038-0.666-2.677-2.377-5.823-3.063c-2.825-1.643-6.656-1.871-6.656-1.871S117.61,62.192,114.596,63.694z"/>
		
			<ellipse transform="matrix(-0.9991 0.0423 -0.0423 -0.9991 244.5252 124.4983)" fill="#C2A3C2" cx="120.946" cy="64.835" rx="3.579" ry="0.999"/>
	</g>
</g>
<g id="Cartoon_path_and_text">
	<rect x="6.514" y="7.388" fill="none" stroke="#929497" stroke-width="0.9389" width="147.616" height="69.536"/>
	<text transform="matrix(1 0 0 1 8.0977 22.8887)" font-family="'ArialMT'" font-size="9.3888">Epidermis (Epi)</text>
	<text transform="matrix(1 0 0 1 53.5889 36.0303)" font-family="'ArialMT'" font-size="9.3888">Placode (Pc)</text>
	<text transform="matrix(1 0 0 1 82.5532 18.186)" font-family="'ArialMT'" font-size="9.3888">Melanocyte (Mc)</text>
	<text transform="matrix(1 0 0 1 64.8643 51.9932)"><tspan x="0" y="0" font-family="'ArialMT'" font-size="9.3888">Dermal</tspan><tspan x="0" y="7.511" font-family="'ArialMT'" font-size="9.3888">Condensate (DC)</tspan></text>
	<text transform="matrix(1 0 0 1 7.8745 56.7842)"><tspan x="0" y="0" font-family="'ArialMT'" font-size="9.3888">Fibroblasts</tspan><tspan x="0" y="7.511" font-family="'ArialMT'" font-size="9.3888">    (Fb)</tspan></text>
	<text transform="matrix(1 0 0 1 60.9268 74.1909)" font-family="'ArialMT'" font-size="9.3888">Schwann cells (Sch)</text>
	<text transform="matrix(1 0 0 1 6.2041 87.9614)"><tspan x="0" y="0" font-family="'ArialMT'" font-size="9.3888">DC/Sch: </tspan><tspan x="37.564" y="0" font-family="'ArialMT'" font-size="8.45">DC and Sch cells</tspan><tspan x="0" y="8.45" font-family="'ArialMT'" font-size="9.3888">Neg: </tspan><tspan x="22.44" y="8.45" font-family="'ArialMT'" font-size="8.45">un-labeled dermal cells</tspan></text>
</g>
</svg>
