<?xml version="1.0" encoding="utf-8"?>
<!-- Generator: Adobe Illustrator 14.0.0, SVG Export Plug-In . SVG Version: 6.00 Build 43363)  -->
<!DOCTYPE svg PUBLIC "-//W3C//DTD SVG 1.1//EN" "http://www.w3.org/Graphics/SVG/1.1/DTD/svg11.dtd">
<svg version="1.1" id="Layer_1" xmlns="http://www.w3.org/2000/svg" xmlns:xlink="http://www.w3.org/1999/xlink" x="0px" y="0px"
	 width="145.637px" height="181.283px" viewBox="0 0 145.637 181.283" enable-background="new 0 0 145.637 181.283"
	 xml:space="preserve">
<g id="Cartoon">
	<defs>
		<rect id="SVGID_1_" x="3.648" y="4.004" width="138.34" height="65.361"/>
	</defs>
	<clipPath id="SVGID_2_">
		<use xlink:href="#SVGID_1_"  overflow="visible"/>
	</clipPath>
	<rect x="4.407" y="3.184" clip-path="url(#SVGID_2_)" fill="#FFFFFF" width="138.283" height="66.182"/>
	<rect x="-10.563" y="33.502" opacity="0.25" clip-path="url(#SVGID_2_)" fill="#2078B5" width="153.253" height="35.863"/>
	<rect x="-11.044" y="3.184" opacity="0.25" clip-path="url(#SVGID_2_)" fill="#F47E20" width="153.404" height="30.674"/>
	<g id="Dermis_3_" clip-path="url(#SVGID_2_)">
		<g id="cyto_29_">
			<path fill="#27A7E0" stroke="#24B1DA" stroke-width="0.5927" d="M126.822,56.748c3.488-0.331,6.433-0.786,6.44-1.286
				c0.003-0.487-2.918,0.085-6.264-0.314c-1.875-1.426-9.985-2.269-13.042-0.142c-3.342,0.33-7.113-0.48-7.117,0.006
				c-0.006,0.487,6.302,1.301,7.445,1.576C119.413,58.586,123.786,57.937,126.822,56.748z"/>
			<path fill="#27A7E0" stroke="#24B1DA" stroke-width="0.5927" d="M34.848,50.73c4.014-0.326,7.402-0.773,7.41-1.275
				c0.003-0.486-3.36,0.081-7.21-0.325c-2.16-1.428-11.495-2.283-15.013-0.162c-3.843,0.324-8.184,2.39-8.188,2.875
				c-0.006,0.487,7.256-1.569,8.571-1.293C25.941,53.521,31.354,51.914,34.848,50.73z"/>
		</g>
		<g id="nuclei_25_">
			<ellipse fill="#93D3EF" cx="27.047" cy="50.106" rx="3.365" ry="0.939"/>
			<ellipse fill="#93D3EF" cx="120.051" cy="55.796" rx="3.365" ry="0.938"/>
		</g>
	</g>
	<g id="RFP_x2B__dermis_3_" clip-path="url(#SVGID_2_)">
		<g id="cyto_28_">
			<path fill="#2078B5" stroke="#1B75BA" stroke-width="0.5927" d="M27.271,40.451c3.444-0.682,8.008,0.561,7.967-0.028
				c-0.043-0.572-4.572-1.676-7.943-1.863c-1.719-3.469-6.453-3.469-13.01,0.933c-3.297,0.667-6.73-0.367-6.689,0.203
				c0.041,0.573,3.041,1.688,6.359,1.882c3.104,1.047,7.071,0.763,7.071,0.763S24.356,42.101,27.271,40.451z"/>
			<path fill="#2078B5" stroke="#1B75BA" stroke-width="0.5927" d="M9.555,37.93c3.509-0.042,6.486-0.268,6.545-0.812
				c0.054-0.53-2.916-0.173-6.206-0.915C8.173,34.482,0.181,32.825-3.08,34.86c-3.36,0.054-7.032-1.173-7.088-0.645
				c-0.055,0.53,6.144,1.991,7.254,2.396C1.989,39.254,6.409,38.945,9.555,37.93z"/>
			<path fill="#2078B5" stroke="#1B75BA" stroke-width="0.5927" d="M136.789,36.865c-3.258-0.938-7.75-0.043-7.661-0.627
				c0.088-0.565,4.537-1.326,7.793-1.26c2.054-1.357,6.595-1.387,12.44,1.904c3.114,0.913,6.503,0.14,6.416,0.705
				c-0.086,0.567-3.065,1.454-6.272,1.397c-3.073,0.811-6.864,0.229-6.864,0.229S139.455,38.727,136.789,36.865z"/>
			<path fill="#2078B5" stroke="#1B75BA" stroke-width="0.5927" d="M128.694,39.674c3.266-0.594,7.621-1.282,7.587-1.783
				c-0.034-0.485-4.817-0.004-8.005-0.149c-1.884-1.278-7.279-4.415-10.254,1.159c-3.127,0.582-6.749,0.06-6.717,0.545
				c0.033,0.487,6.052,0.818,7.153,1.007C121.74,42.641,125.923,41.09,128.694,39.674z"/>
			<path fill="#2078B5" stroke="#1B75BA" stroke-width="0.5927" d="M43.695,39.391c3.488-0.331,7.139,1.623,7.146,1.122
				c0.003-0.487-3.336-3.348-6.682-3.748c-1.874-1.424-7.234-2.853-11.003-0.144c-3.338,0.33-5.797-0.042-5.802,0.443
				c-0.007,0.489,5.549,1.188,6.692,1.463C38.591,40.851,40.658,40.58,43.695,39.391z"/>
			<path fill="#2078B5" stroke="#1B75BA" stroke-width="0.5927" d="M110.171,38.498c2.567-1.009,6.307-0.229,6.182-0.805
				c-0.124-0.561-3.817-1.208-6.465-1.063c-3.305-2.174-8.83-0.774-9.956,2.188c-2.454,0.98-4.497,2.714-4.376,3.273
				c0.124,0.561,1.845-1.052,4.452-1.185c2.579,0.729,5.614,0.062,5.614,0.062S108.172,40.409,110.171,38.498z"/>
		</g>
		<g id="nuclei_24_">
			
				<ellipse id="nucleus_30_" transform="matrix(0.9603 -0.2788 0.2788 0.9603 -6.7645 30.875)" fill="#90BBDA" cx="105.164" cy="39.219" rx="3.963" ry="1.257"/>
			
				<ellipse id="nucleus_29_" transform="matrix(0.9604 -0.2786 0.2786 0.9604 -6.1946 35.8018)" fill="#90BBDA" cx="122.844" cy="39.692" rx="2.974" ry="1.257"/>
			
				<ellipse id="nucleus_28_" transform="matrix(0.9864 0.1645 -0.1645 0.9864 8.1239 -22.9437)" fill="#90BBDA" cx="142.605" cy="37.583" rx="3.963" ry="1.258"/>
			
				<ellipse id="nucleus_27_" transform="matrix(0.9806 -0.1958 0.1958 0.9806 -7.5488 4.8234)" fill="#90BBDA" cx="20.624" cy="40.595" rx="3.963" ry="1.256"/>
			
				<ellipse id="nucleus_26_" transform="matrix(0.974 0.2266 -0.2266 0.974 9.6642 -7.7031)" fill="#90BBDA" cx="38.391" cy="38.251" rx="3.134" ry="1.256"/>
			
				<ellipse id="nucleus_25_" transform="matrix(0.9765 0.2156 -0.2156 0.9765 7.8605 0.2069)" fill="#90BBDA" cx="2.982" cy="36.129" rx="3.963" ry="1.258"/>
		</g>
	</g>
	<g id="Condensate_4_" clip-path="url(#SVGID_2_)">
		<g id="cyto_27_">
			<path fill="#2DA048" stroke="#009247" stroke-width="0.7903" d="M61.961,44.719c1.442,2.564,4.871,2.645,4.231,3.212
				c-0.622,0.551-3.885,0.351-6.187-1.3c-2.01-0.191-3.347-0.626-4.683-2.06c-0.805-1.089-1.827-3.23-2.597-5.689
				c-1.793-6.477-0.785-2.161,1.698-1.468c0.817,0.173,1.515,0.405,2.18,0.559c1.808,0.417,3.224,1.729,3.224,1.729
				C59.829,39.702,61.862,41.473,61.961,44.719z"/>
			<path fill="#2DA048" stroke="#009247" stroke-width="0.7903" d="M76.242,53.354c3.196,0.097,6.792-3.2,6.907-3.835
				c0.112-0.618-3.49,2.833-6.396,1.829c-1.364-2.085-5.376-3.609-11.645-2.109c-3.063-0.076-5.806-1.994-5.916-1.377
				c-0.112,0.617,2.229,2.52,5.085,3.516c2.452,1.853,6.002,2.496,6.002,2.496S73.262,54.413,76.242,53.354z"/>
			<path fill="#2DA048" stroke="#009247" stroke-width="0.7903" d="M72.722,45.078c1.937,2.447,8.103,6.65-1.439,1.814
				c-5.705,0.474-8.696-3.232-8.573-7.676c-0.896-1.147-5.456-1.743-6.347-2.993c0.236-0.474,6.255,1.216,9.007,2.288
				C68.392,39.136,71.912,41.989,72.722,45.078z"/>
			<path fill="#2DA048" stroke="#009247" stroke-width="0.7903" d="M85.902,40.091c1.122-2.707,5.978-2.798,5.328-3.235
				c-0.63-0.424-5.468,0.112-7.479,2.088c-2.487,0.7-5.792,3.22-5.994,8.934c0.253,0.752-0.785,2.486-0.401,2.722
				c0.931-0.129,2.626-1.904,2.912-2.087c3.063-0.306,4.185-2.641,4.145-2.641C84.412,45.871,86.097,43.226,85.902,40.091z"/>
			<path fill="#2DA048" stroke="#009247" stroke-width="0.7903" d="M93.162,40.966c1.335-3.061,1.53-5.038,1.79-6.367
				c-0.151,0.279-1.488,1.978-3.662,3.601c-3.078,1.524-4.402,1.434-4.994,8.299c-0.402,1.499-1.67,3.761-3.144,4.841
				c0.329,0.303,2.178-1.363,4.525-3.133C89.96,46.067,92.343,42.841,93.162,40.966z"/>
			<path fill="#2DA048" stroke="#009247" stroke-width="0.7903" d="M71.921,38.546c-0.907-0.13-4.533-0.784-4.54-0.504
				c-0.009,0.468,4.145,1.493,4.847,2.757c2.178,6.038,3.792,6.939,6.619-0.901c0.24-0.452,3.845-1.75,3.793-2.043
				c-0.447-0.408-4.343,0.581-4.548,0.519C76.269,37.447,73.915,37.417,71.921,38.546z"/>
		</g>
		<g id="nuclei_23_">
			<ellipse fill="#96D0A4" cx="57.836" cy="42.794" rx="1.809" ry="1.976"/>
			<ellipse fill="#96D0A4" cx="89.45" cy="42.532" rx="1.413" ry="1.64"/>
			<ellipse fill="#96D0A4" cx="81.824" cy="44.176" rx="1.809" ry="1.976"/>
			<ellipse fill="#96D0A4" cx="67.381" cy="43.66" rx="1.809" ry="1.976"/>
			<ellipse fill="#96D0A4" cx="75.438" cy="41.62" rx="1.381" ry="1.977"/>
			<ellipse fill="#96D0A4" cx="71.17" cy="51.375" rx="1.809" ry="1.975"/>
		</g>
	</g>
	<g id="Placode_4_" clip-path="url(#SVGID_2_)">
		<g id="cyto_26_">
			<path fill="#EC2327" stroke="#BD202E" stroke-width="0.4599" d="M56.335,28.104c0,3.481,0.69,7.412-3.256,6.305h-5.138
				c-5.347-1.568-3.255-2.823-3.255-6.305l0,0c0-3.484-0.796-7.412,3.255-6.307h5.138C57.595,19.806,56.335,24.619,56.335,28.104
				L56.335,28.104z"/>
			<path fill="#EC2327" stroke="#BD202E" stroke-width="0.4495" d="M67.846,28.719c0,3.892,0.181,8.774-3.137,7.045h-4.947
				c-4.014,0.481-3.136-3.153-3.136-7.045l0,0c0-3.89-1.101-8.772,3.136-7.042h4.947C69.163,21.197,67.846,24.829,67.846,28.719
				L67.846,28.719z"/>
			<path fill="#EC2327" stroke="#BD202E" stroke-width="0.4345" d="M78.578,28.27c0,3.634,0.168,8.331-3.193,8.062L71,36.303
				c-3.692,0.449-2.742-4.399-2.742-8.033l0,0c0-3.635-0.786-6.914,2.883-6.579h4.554C79.769,22.939,78.578,24.635,78.578,28.27
				L78.578,28.27z"/>
			<path fill="#EC2327" stroke="#BD202E" stroke-width="0.4599" d="M90.434,28.104c0,3.481-0.691,7.412,3.254,6.305h5.14
				c5.346-1.568,3.253-2.823,3.253-6.305l0,0c0-3.484,0.797-7.412-3.253-6.307h-5.14C89.171,19.806,90.434,24.619,90.434,28.104
				L90.434,28.104z"/>
			<path fill="#EC2327" stroke="#BD202E" stroke-width="0.4495" d="M78.923,28.719c0,3.892-0.181,8.774,3.136,7.045h4.949
				c4.012,0.481,3.134-3.153,3.134-7.045l0,0c0-3.89,1.1-8.772-3.134-7.042h-4.949C77.604,21.197,78.923,24.829,78.923,28.719
				L78.923,28.719z"/>
		</g>
		<g id="nuclei_22_">
			<circle fill="#F69193" cx="50.49" cy="30.236" r="2.76"/>
			<ellipse fill="#F69193" cx="96.069" cy="30.595" rx="2.76" ry="2.309"/>
			<ellipse fill="#F69193" cx="84.292" cy="31.277" rx="2.239" ry="2.545"/>
			<ellipse fill="#F69193" cx="73" cy="31.363" rx="2.4" ry="2.459"/>
			<ellipse fill="#F69193" cx="62.138" cy="31.244" rx="2.683" ry="2.578"/>
		</g>
	</g>
	<g id="Basal_epidermis_3_" clip-path="url(#SVGID_2_)">
		<g id="cyto_25_">
			<path fill="#F47E20" stroke="#F59120" stroke-width="0.4304" d="M28.778,27.598c0,3.006,0,6.972-4.46,5.444h-7.04
				c-5.241,1.338-4.458-2.438-4.458-5.444l0,0c0-3.008-0.939-5.85,4.458-5.446h7.04C28.778,20.623,28.778,24.59,28.778,27.598
				L28.778,27.598z"/>
			<path fill="#F47E20" stroke="#F59120" stroke-width="0.4409" d="M44.617,27.563c0,3.008,0.937,6.402-4.416,5.446h-6.975
				c-4.722,1.91-4.416-2.438-4.416-5.446l0,0c0-3.006-1.08-6.399,4.416-5.444h6.975C46.327,20.398,44.617,24.557,44.617,27.563
				L44.617,27.563z"/>
			<path fill="#F47E20" stroke="#F59120" stroke-width="0.4217" d="M102.517,27.563c0,3.008-0.856,6.402,4.04,5.446h6.381
				c4.319,1.91,4.04-2.438,4.04-5.446l0,0c0-3.006,0.987-6.399-4.04-5.444h-3.217h-3.164
				C100.95,20.398,102.517,24.557,102.517,27.563L102.517,27.563z"/>
			<path fill="#F47E20" stroke="#F59120" stroke-width="0.445" d="M133.115,27.53c0,3.009,0.222,7.357-4.51,5.446h-7.12
				c-5.459,1.911-4.508-2.438-4.508-5.446l0,0c0-3.007-1.108-6.973,4.508-5.443h7.12C134.855,20.558,133.115,24.523,133.115,27.53
				L133.115,27.53z"/>
			<path fill="#F47E20" stroke="#F59120" stroke-width="0.4217" d="M-1.157,27.14c0,3.008-0.855,6.402,4.04,5.446h6.381
				c4.319,1.91,4.04-2.438,4.04-5.446l0,0c0-3.007,0.988-6.399-4.04-5.444H6.048H2.883C-2.722,19.977-1.157,24.133-1.157,27.14
				L-1.157,27.14z"/>
			<path fill="#F47E20" stroke="#F59120" stroke-width="0.445" d="M149.563,27.107c0,3.008,0.224,7.357-4.509,5.446h-7.12
				c-5.458,1.911-4.51-2.438-4.51-5.446l0,0c0-3.007-1.106-6.972,4.51-5.444h7.12C151.305,20.136,149.563,24.101,149.563,27.107
				L149.563,27.107z"/>
		</g>
		<g id="nuclei_21_">
			<ellipse fill="#FABF90" cx="21.044" cy="29.675" rx="5.014" ry="1.213"/>
			<ellipse fill="#FABF90" cx="36.933" cy="30.26" rx="5.014" ry="1.213"/>
			<ellipse fill="#FABF90" cx="109.254" cy="30.888" rx="5.014" ry="1.213"/>
			<ellipse fill="#FABF90" cx="124.791" cy="30.464" rx="5.014" ry="1.212"/>
			<ellipse fill="#FABF90" cx="5.582" cy="30.465" rx="5.014" ry="1.212"/>
			<ellipse fill="#FABF90" cx="141.239" cy="30.041" rx="5.014" ry="1.212"/>
		</g>
	</g>
	<g id="Epidermis_3_" clip-path="url(#SVGID_2_)">
		<g id="cyto_24_">
			<path fill="#F47E20" stroke="#F59120" stroke-width="0.5256" d="M20.277,16.595c0,2.608,0,6.047-4.859,4.722H7.745
				c-5.712,1.16-4.859-2.113-4.859-4.722l0,0c0-2.607-1.022-5.072,4.859-4.721h7.673C20.277,10.548,20.277,13.987,20.277,16.595
				L20.277,16.595z"/>
			<path fill="#F47E20" stroke="#F59120" stroke-width="0.5256" d="M40.818,16.622c0,2.607,1.189,5.551-5.616,4.721h-8.865
				c-6.002,1.657-5.614-2.113-5.614-4.721l0,0c0-2.608-1.374-5.551,5.614-4.723h8.865C42.991,10.408,40.818,14.014,40.818,16.622
				L40.818,16.622z"/>
			<path fill="#F47E20" stroke="#F59120" stroke-width="0.5256" d="M62.462,16.622c0,2.608,0,6.047-5.944,4.722h-9.392
				c-6.987,1.161-5.945-2.113-5.945-4.722l0,0c0-2.607-1.252-5.071,5.945-4.721h9.392C62.462,10.576,62.462,14.015,62.462,16.622
				L62.462,16.622z"/>
			<path fill="#F47E20" stroke="#F59120" stroke-width="0.5256" d="M83.004,16.65c0,2.607,1.187,5.551-5.615,4.721h-8.866
				c-6.002,1.658-5.614-2.113-5.614-4.721l0,0c0-2.609-1.374-5.551,5.614-4.723h8.866C85.177,10.436,83.004,14.041,83.004,16.65
				L83.004,16.65z"/>
			<path fill="#F47E20" stroke="#F59120" stroke-width="0.5256" d="M104.647,16.511c0,2.608,0,6.048-5.946,4.723h-9.39
				c-6.989,1.16-5.945-2.114-5.945-4.723l0,0c0-2.607-1.252-5.071,5.945-4.721h9.39C104.647,10.464,104.647,13.903,104.647,16.511
				L104.647,16.511z"/>
			<path fill="#F47E20" stroke="#F59120" stroke-width="0.5256" d="M125.189,16.538c0,2.608,1.188,5.552-5.616,4.722h-8.866
				c-6.001,1.658-5.615-2.113-5.615-4.722l0,0c0-2.607-1.372-5.551,5.615-4.721h8.866C127.361,10.326,125.189,13.931,125.189,16.538
				L125.189,16.538z"/>
			<path fill="#F47E20" stroke="#F59120" stroke-width="0.5256" d="M146.832,16.538c0,2.609,0,6.048-5.945,4.723h-9.391
				c-6.989,1.16-5.945-2.113-5.945-4.723l0,0c0-2.606-1.252-5.07,5.945-4.721h9.391C146.832,10.491,146.832,13.932,146.832,16.538
				L146.832,16.538z"/>
		</g>
		<g id="nuclei_20_">
			<ellipse fill="#FABF90" cx="11.194" cy="17.839" rx="5.606" ry="1.356"/>
			<ellipse fill="#FABF90" cx="50.791" cy="19.195" rx="5.607" ry="1.356"/>
			<ellipse fill="#FABF90" cx="134.82" cy="18.035" rx="5.606" ry="1.356"/>
			<ellipse fill="#FABF90" cx="117.15" cy="19.195" rx="5.606" ry="1.356"/>
			<ellipse fill="#FABF90" cx="91.136" cy="17.839" rx="5.606" ry="1.356"/>
			<ellipse fill="#FABF90" cx="73.423" cy="17.839" rx="5.606" ry="1.356"/>
			<ellipse fill="#FABF90" cx="33.922" cy="17.839" rx="5.606" ry="1.356"/>
		</g>
	</g>
	<g id="Mc" clip-path="url(#SVGID_2_)">
		<path fill="#D679B1" stroke="#BB7EB4" stroke-width="0.5927" d="M127.449,19.667c-1.203,2.992-2.957,5.341-6.898,4.407
			l-5.433,3.281c-5.588,0,2.046-1.96,2.046-4.901l0.114-1.471c1.735-4.155,3.847-4.375,8.139-2.846l5.255-1.529
			C136.055,17.219,127.449,19.667,127.449,19.667z"/>
		
			<ellipse transform="matrix(0.9729 -0.2314 0.2314 0.9729 -1.5899 28.8377)" fill="#EBBCD8" cx="122.138" cy="21.196" rx="3.161" ry="1.53"/>
	</g>
	<g id="DCP" clip-path="url(#SVGID_2_)">
		<path fill="#80CAA1" stroke="#80C7A4" stroke-width="0.7903" d="M52.997,55.289c2.781,1.848,4.694,2.385,5.958,2.871
			c-0.249-0.197-1.688-1.809-2.91-4.232c-0.965-3.296-0.645-4.585-7.303-6.363c-1.404-0.656-3.412-2.298-4.22-3.936
			c-0.354,0.271,0.963,2.383,2.298,5.001C48.529,51.249,51.292,54.156,52.997,55.289z"/>
		
			<ellipse transform="matrix(-0.1742 0.9847 -0.9847 -0.1742 111.7497 9.0058)" fill="#BFE4D0" cx="52.099" cy="51.361" rx="1.413" ry="1.638"/>
		<path fill="#80CAA1" stroke="#80C7A4" stroke-width="0.7903" d="M97.375,52.665c2.897-0.498,4.123-3.703,4.441-2.91
			c0.313,0.771-0.969,3.777-3.296,5.396c-0.854,1.827-1.713,2.943-3.51,3.72c-1.295,0.394-3.654,0.641-6.231,0.543
			c-6.702-0.481-2.299,0.015-0.813-2.093c0.437-0.712,0.89-1.29,1.257-1.867c0.998-1.563,2.709-2.457,2.709-2.457
			C91.932,52.994,94.281,51.671,97.375,52.665z"/>
		
			<ellipse transform="matrix(0.3352 -0.9422 0.9422 0.3352 9.9368 125.8976)" fill="#BFE4D0" cx="94.178" cy="55.908" rx="1.809" ry="1.975"/>
	</g>
	<g id="Sch" clip-path="url(#SVGID_2_)">
		<path fill="#9268AC" stroke="#8368A9" stroke-width="0.7903" d="M45.948,66.449c3.161,0.473,7.119-2.378,7.309-2.995
			c0.184-0.602-3.8,2.402-6.567,1.064c-1.109-2.232-4.914-4.218-11.316-3.466c-3.032-0.436-5.528-2.663-5.713-2.063
			c-0.184,0.6,1.917,2.764,4.639,4.089c2.216,2.128,5.665,3.186,5.665,3.186S42.862,67.152,45.948,66.449z"/>
		
			<ellipse transform="matrix(0.9809 0.1947 -0.1947 0.9809 13.2369 -6.6429)" fill="#C9B3D6" cx="40.402" cy="63.997" rx="3.365" ry="0.939"/>
	</g>
</g>
<text transform="matrix(1 0 0 1 0.3135 88.2637)"><tspan x="0" y="0" font-family="'MyriadPro-Bold'" font-size="11.2241">Key:</tspan><tspan x="0" y="10.102" fill="#EC2327" font-family="'MyriadPro-Bold'" font-size="8.4181">Pc</tspan><tspan x="8.688" y="10.102" fill="#EC2327" font-family="'MyriadPro-Bold'" font-size="8.4181" letter-spacing="20">	</tspan><tspan x="30.943" y="10.102" fill="#EC2327" font-family="'MyriadPro-Bold'" font-size="8.4181">   placode</tspan><tspan x="0" y="20.203" fill="#F47E20" font-family="'MyriadPro-Bold'" font-size="8.4181">Epi</tspan><tspan x="11.836" y="20.203" fill="#F47E20" font-family="'MyriadPro-Bold'" font-size="8.4181" letter-spacing="17">	</tspan><tspan x="30.944" y="20.203" fill="#F47E20" font-family="'MyriadPro-Bold'" font-size="8.4181">   epidermis</tspan><tspan x="0" y="30.305" fill="#D679B1" font-family="'MyriadPro-Bold'" font-size="8.4181">Mc</tspan><tspan x="10.919" y="30.305" fill="#D679B1" font-family="'MyriadPro-Bold'" font-size="8.4181" letter-spacing="18">	</tspan><tspan x="30.944" y="30.305" fill="#D679B1" font-family="'MyriadPro-Bold'" font-size="8.4181">   melanocytes</tspan><tspan x="0" y="40.407" fill="#2DA048" font-family="'MyriadPro-Bold'" font-size="8.4181">DC</tspan><tspan x="10.868" y="40.407" fill="#2DA048" font-family="'MyriadPro-Bold'" font-size="8.4181" letter-spacing="18">	</tspan><tspan x="30.944" y="40.407" fill="#2DA048" font-family="'MyriadPro-Bold'" font-size="8.4181">   dermal condensate</tspan><tspan x="0" y="50.509" fill="#2078B5" font-family="'MyriadPro-Bold'" font-size="8.4181">DF</tspan><tspan x="10.296" y="50.509" fill="#2078B5" font-family="'MyriadPro-Bold'" font-size="8.4181" letter-spacing="18">	</tspan><tspan x="30.944" y="50.509" fill="#2078B5" font-family="'MyriadPro-Bold'" font-size="8.4181">   dermal fibroblasts</tspan><tspan x="0" y="60.61" fill="#9268AC" font-family="'MyriadPro-Bold'" font-size="8.4181">Sch</tspan><tspan x="13.275" y="60.61" fill="#9268AC" font-family="'MyriadPro-Bold'" font-size="8.4181" letter-spacing="15">	</tspan><tspan x="30.943" y="60.61" fill="#9268AC" font-family="'MyriadPro-Bold'" font-size="8.4181">   Schwann cells</tspan><tspan x="0" y="70.712" fill="#80CAA1" font-family="'MyriadPro-Bold'" font-size="8.4181">DC/Sch</tspan><tspan x="26.93" y="70.712" fill="#80CAA1" font-family="'MyriadPro-Bold'" font-size="8.4181" letter-spacing="2">	</tspan><tspan x="30.944" y="70.712" fill="#80CAA1" font-family="'MyriadPro-Bold'" font-size="8.4181">   mixed DC/Sch</tspan><tspan x="0" y="80.813" fill="#27A7E0" font-family="'MyriadPro-Bold'" font-size="8.4181">EC/SM</tspan><tspan x="23.958" y="80.813" fill="#27A7E0" font-family="'MyriadPro-Bold'" font-size="8.4181" letter-spacing="5">	</tspan><tspan x="30.944" y="80.813" fill="#27A7E0" font-family="'MyriadPro-Bold'" font-size="8.4181">   mixed endothelial cells/</tspan><tspan x="0" y="90.915" fill="#27A7E0" font-family="'MyriadPro-Bold'" font-size="8.4181" letter-spacing="29">	</tspan><tspan x="30.943" y="90.915" fill="#27A7E0" font-family="'MyriadPro-Bold'" font-size="8.4181">   smooth muscle/ other dermis</tspan></text>
</svg>
