<?xml version="1.0" encoding="utf-8"?>
<!-- Generator: Adobe Illustrator 14.0.0, SVG Export Plug-In . SVG Version: 6.00 Build 43363)  -->
<!DOCTYPE svg PUBLIC "-//W3C//DTD SVG 1.1//EN" "http://www.w3.org/Graphics/SVG/1.1/DTD/svg11.dtd">
<svg version="1.1" id="Layer_1" xmlns="http://www.w3.org/2000/svg" xmlns:xlink="http://www.w3.org/1999/xlink" x="0px" y="0px"
	 width="160.333px" height="106.516px" viewBox="0 0 160.333 106.516" enable-background="new 0 0 160.333 106.516"
	 xml:space="preserve">
<g id="Cartoon">
	<defs>
		<rect id="SVGID_1_" x="1.333" y="1.667" width="157.167" height="74.063"/>
	</defs>
	<clipPath id="SVGID_2_">
		<use xlink:href="#SVGID_1_"  overflow="visible"/>
	</clipPath>
	<rect x="2.193" y="0.737" clip-path="url(#SVGID_2_)" fill="#FFFFFF" width="156.694" height="74.993"/>
	<rect x="-14.769" y="35.092" opacity="0.5" clip-path="url(#SVGID_2_)" fill="#85A3C2" width="173.656" height="40.638"/>
	<rect x="-15.315" y="0.737" opacity="0.5" clip-path="url(#SVGID_2_)" fill="#FFC285" width="173.828" height="34.758"/>
	<g id="Dermis_3_" display="none" clip-path="url(#SVGID_2_)">
		<g id="cyto_29_" display="inline">
			<path fill="#85A3C2" stroke="#85A3C2" stroke-width="1.1331" d="M155.482,73.591c3.953-0.375,7.289-0.891,7.298-1.457
				c0.004-0.553-3.307,0.096-7.098-0.356c-2.124-1.616-11.314-2.571-14.778-0.161c-3.786,0.375-8.06-0.544-8.064,0.008
				c-0.007,0.551,7.141,1.473,8.437,1.785C147.086,75.673,152.042,74.938,155.482,73.591z"/>
			<path fill="#85A3C2" stroke="#85A3C2" stroke-width="1.1331" d="M51.262,66.773c4.549-0.37,8.389-0.877,8.397-1.445
				c0.003-0.551-3.809,0.092-8.17-0.369c-2.448-1.617-13.026-2.587-17.012-0.184c-4.354,0.367-9.273,2.708-9.278,3.258
				c-0.007,0.553,8.222-1.777,9.712-1.465C41.17,69.934,47.304,68.114,51.262,66.773z"/>
		</g>
		<g id="nuclei_25_" display="inline">
			<ellipse fill="#ADC2D6" cx="42.424" cy="66.066" rx="3.813" ry="1.064"/>
			<ellipse fill="#ADC2D6" cx="147.81" cy="72.512" rx="3.813" ry="1.063"/>
		</g>
	</g>
	<g id="RFP_x2B__dermis_3_" clip-path="url(#SVGID_2_)">
		<g id="cyto_28_">
			<path fill="#336699" stroke="#264D73" stroke-width="0.6717" d="M28.1,45.969c3.903-0.772,9.074,0.636,9.027-0.032
				c-0.048-0.648-5.181-1.898-9-2.111c-1.948-3.93-7.313-3.93-14.742,1.057c-3.736,0.756-7.627-0.416-7.58,0.23
				c0.047,0.65,3.446,1.914,7.206,2.133c3.518,1.186,8.013,0.864,8.013,0.864S24.798,47.838,28.1,45.969z"/>
			<path fill="#336699" stroke="#264D73" stroke-width="0.6717" d="M8.026,40.108c3.976-0.047,7.35-0.303,7.416-0.919
				c0.062-0.601-3.304-0.196-7.032-1.037c-1.949-1.95-11.006-3.827-14.7-1.521c-3.808,0.062-7.969-1.329-8.032-0.73
				c-0.062,0.601,6.962,2.257,8.22,2.716C-0.546,41.609,4.461,41.26,8.026,40.108z"/>
			<path fill="#336699" stroke="#264D73" stroke-width="0.6717" d="M152.2,38.903c-3.691-1.064-8.782-0.049-8.681-0.711
				c0.1-0.641,5.141-1.503,8.83-1.428c2.327-1.538,7.473-1.571,14.097,2.158c3.529,1.034,7.369,0.158,7.271,0.799
				c-0.098,0.643-3.474,1.647-7.107,1.584c-3.482,0.918-7.778,0.258-7.778,0.258S155.221,41.012,152.2,38.903z"/>
			<path fill="#336699" stroke="#264D73" stroke-width="0.6717" d="M143.027,46.089c3.701-0.672,8.636-1.453,8.598-2.021
				c-0.039-0.55-5.459-0.005-9.07-0.169c-2.135-1.449-8.249-5.003-11.619,1.313c-3.544,0.659-7.648,0.067-7.611,0.617
				c0.037,0.552,6.857,0.927,8.105,1.142C135.147,49.451,139.887,47.694,143.027,46.089z"/>
			<path fill="#336699" stroke="#264D73" stroke-width="0.6717" d="M46.712,41.765c3.952-0.375,8.089,1.839,8.097,1.271
				c0.003-0.553-3.78-3.794-7.571-4.248c-2.124-1.613-8.197-3.231-12.468-0.162c-3.782,0.374-6.569-0.047-6.574,0.502
				c-0.008,0.555,6.287,1.346,7.583,1.658C40.928,43.419,43.27,43.112,46.712,41.765z"/>
			<path fill="#336699" stroke="#264D73" stroke-width="0.6717" d="M122.038,40.753c2.909-1.143,7.146-0.26,7.005-0.912
				c-0.141-0.635-4.325-1.369-7.325-1.205c-3.745-2.463-10.006-0.877-11.282,2.48c-2.78,1.111-5.096,3.074-4.958,3.709
				c0.141,0.635,2.09-1.191,5.045-1.342c2.922,0.825,6.361,0.069,6.361,0.069S119.773,42.919,122.038,40.753z"/>
			<path fill="#336699" stroke="#264D73" stroke-width="0.6717" d="M-3.819,61.189c-3.701-0.672-8.636-1.451-8.598-2.02
				c0.039-0.551,5.459-0.004,9.07-0.17c2.135-1.447,8.249-5.002,11.619,1.314c3.544,0.658,7.648,0.066,7.611,0.617
				c-0.037,0.553-6.857,0.928-8.105,1.141C4.061,64.552-0.679,62.794-3.819,61.189z"/>
			<path fill="#336699" stroke="#264D73" stroke-width="0.6717" d="M52.167,59.882c3.7-0.672,8.636-1.453,8.597-2.02
				c-0.038-0.551-5.458-0.006-9.07-0.17c-2.135-1.449-8.248-5.002-11.619,1.314c-3.543,0.658-7.647,0.066-7.611,0.617
				c0.038,0.551,6.857,0.926,8.106,1.141C44.288,63.246,49.027,61.488,52.167,59.882z"/>
			<path fill="#336699" stroke="#264D73" stroke-width="0.6717" d="M164.814,55.136c3.903-0.773,9.074,0.635,9.027-0.033
				c-0.048-0.648-5.181-1.898-9-2.111c-1.948-3.93-7.313-3.93-14.742,1.057c-3.736,0.756-7.627-0.416-7.58,0.23
				c0.047,0.65,3.446,1.914,7.206,2.133c3.518,1.186,8.013,0.865,8.013,0.865S161.512,57.005,164.814,55.136z"/>
		</g>
		<g id="nuclei_24_">
			
				<ellipse id="nucleus_30_" transform="matrix(0.9603 -0.2789 0.2789 0.9603 -6.9765 34.103)" fill="#85A3C2" cx="116.364" cy="41.57" rx="4.491" ry="1.425"/>
			
				<ellipse id="nucleus_29_" transform="matrix(0.9604 -0.2785 0.2785 0.9604 -7.4453 39.8183)" fill="#85A3C2" cx="136.398" cy="46.109" rx="3.369" ry="1.424"/>
			
				<ellipse id="nucleus_28_" transform="matrix(0.9864 0.1645 -0.1645 0.9864 8.6968 -25.5807)" fill="#85A3C2" cx="158.791" cy="39.716" rx="4.491" ry="1.425"/>
			
				<ellipse id="nucleus_27_" transform="matrix(0.9807 -0.1957 0.1957 0.9807 -8.6311 4.9178)" fill="#85A3C2" cx="20.568" cy="46.132" rx="4.491" ry="1.424"/>
			
				<ellipse id="nucleus_26_" transform="matrix(0.974 0.2265 -0.2265 0.974 10.2228 -8.1657)" fill="#85A3C2" cx="40.702" cy="40.473" rx="3.551" ry="1.423"/>
			
				<ellipse id="nucleus_25_" transform="matrix(0.9765 0.2155 -0.2155 0.9765 8.2183 0.77)" fill="#85A3C2" cx="0.579" cy="38.068" rx="4.49" ry="1.425"/>
			
				<ellipse id="nucleus_2_" transform="matrix(-0.9603 -0.2788 0.2788 -0.9603 -11.5586 120.7769)" fill="#85A3C2" cx="2.81" cy="61.21" rx="3.369" ry="1.425"/>
			<path id="nucleus_1_" fill="#85A3C2" d="M48.775,58.964c0.219,0.754-1.052,1.787-2.841,2.307
				c-1.787,0.518-3.414,0.328-3.632-0.43c-0.219-0.754,1.05-1.787,2.839-2.305C46.929,58.015,48.554,58.208,48.775,58.964z"/>
			
				<ellipse id="nucleus_3_" transform="matrix(0.9807 -0.1957 0.1957 0.9807 -7.7811 31.8526)" fill="#85A3C2" cx="157.282" cy="55.298" rx="4.491" ry="1.424"/>
		</g>
	</g>
	<g id="Condensate_4_" clip-path="url(#SVGID_2_)">
		<g id="cyto_27_">
			<path fill="#009966" stroke="#00734D" stroke-width="0.8955" d="M67.41,47.802c1.634,2.906,5.52,2.996,4.795,3.639
				c-0.705,0.625-4.402,0.398-7.011-1.472c-2.277-0.218-3.792-0.71-5.306-2.334c-0.912-1.233-2.07-3.661-2.942-6.446
				c-2.032-7.34-0.89-2.449,1.924-1.664c0.927,0.196,1.717,0.459,2.47,0.633c2.049,0.473,3.653,1.959,3.653,1.959
				C64.994,42.117,67.297,44.124,67.41,47.802z"/>
			<path fill="#009966" stroke="#00734D" stroke-width="0.8955" d="M83.592,57.585c3.621,0.111,7.696-3.625,7.826-4.344
				c0.128-0.701-3.954,3.209-7.248,2.072c-1.546-2.363-6.092-4.09-13.194-2.391c-3.471-0.086-6.579-2.26-6.704-1.561
				c-0.127,0.699,2.525,2.855,5.762,3.984c2.779,2.1,6.802,2.828,6.802,2.828S80.214,58.787,83.592,57.585z"/>
			<path fill="#009966" stroke="#00734D" stroke-width="0.8955" d="M79.603,48.209c2.194,2.773,9.181,7.537-1.632,2.056
				c-6.464,0.537-9.854-3.662-9.714-8.697c-1.017-1.301-6.183-1.975-7.192-3.392c0.269-0.536,7.088,1.378,10.206,2.593
				C74.696,41.476,78.685,44.709,79.603,48.209z"/>
			<path fill="#009966" stroke="#00734D" stroke-width="0.8955" d="M94.539,42.558c1.271-3.067,6.773-3.17,6.037-3.666
				c-0.714-0.48-6.195,0.127-8.476,2.365c-2.818,0.794-6.563,3.648-6.792,10.124c0.287,0.852-0.89,2.818-0.455,3.084
				c1.055-0.146,2.976-2.158,3.3-2.365c3.472-0.346,4.742-2.992,4.696-2.992C92.849,49.107,94.758,46.11,94.539,42.558z"/>
			<path fill="#009966" stroke="#00734D" stroke-width="0.8955" d="M102.764,43.55c1.513-3.469,1.734-5.709,2.028-7.215
				c-0.171,0.316-1.686,2.24-4.149,4.079c-3.487,1.728-4.988,1.624-5.659,9.403c-0.456,1.7-1.892,4.262-3.562,5.487
				c0.373,0.342,2.468-1.545,5.128-3.551C99.136,49.33,101.836,45.674,102.764,43.55z"/>
			<path fill="#009966" stroke="#00734D" stroke-width="0.8955" d="M78.696,40.808c-1.028-0.147-5.137-0.889-5.145-0.571
				c-0.011,0.53,4.696,1.692,5.491,3.124c2.468,6.842,4.297,7.864,7.501-1.021c0.271-0.513,4.356-1.983,4.298-2.315
				c-0.507-0.462-4.921,0.659-5.153,0.588C83.622,39.563,80.955,39.528,78.696,40.808z"/>
		</g>
		<g id="nuclei_23_">
			<ellipse fill="#66C2A3" cx="62.736" cy="45.62" rx="2.05" ry="2.239"/>
			<ellipse fill="#66C2A3" cx="98.558" cy="45.324" rx="1.601" ry="1.858"/>
			<ellipse fill="#66C2A3" cx="89.917" cy="47.187" rx="2.05" ry="2.238"/>
			<ellipse fill="#66C2A3" cx="73.551" cy="46.603" rx="2.05" ry="2.238"/>
			<ellipse fill="#66C2A3" cx="82.681" cy="44.29" rx="1.565" ry="2.24"/>
			<path fill="#66C2A3" d="M79.895,55.345c0,1.234-0.918,2.236-2.05,2.236c-1.134,0-2.05-1.002-2.05-2.236
				c0-1.238,0.916-2.242,2.05-2.242C78.977,53.103,79.895,54.107,79.895,55.345z"/>
		</g>
	</g>
	<g id="Basal_epidermis_3_" clip-path="url(#SVGID_2_)">
		<g id="cyto_25_">
			<path fill="#FF9933" stroke="#BF7326" stroke-width="0.4877" d="M29.809,28.401c0,3.406,0,7.9-5.054,6.169h-7.978
				c-5.938,1.517-5.052-2.763-5.052-6.169l0,0c0-3.408-1.064-6.629,5.052-6.172h7.978C29.809,20.498,29.809,24.993,29.809,28.401
				L29.809,28.401z"/>
			<path fill="#FF9933" stroke="#BF7326" stroke-width="0.4995" d="M47.756,28.361c0,3.408,1.062,7.255-5.004,6.171h-7.903
				c-5.35,2.165-5.004-2.763-5.004-6.171l0,0c0-3.405-1.224-7.251,5.004-6.169h7.903C49.694,20.243,47.756,24.956,47.756,28.361
				L47.756,28.361z"/>
			<path fill="#FF9933" stroke="#BF7326" stroke-width="0.4778" d="M113.365,28.361c0,3.408-0.971,7.255,4.577,6.171h7.23
				c4.895,2.165,4.578-2.763,4.578-6.171l0,0c0-3.405,1.119-7.251-4.578-6.169h-3.645h-3.586
				C111.589,20.243,113.365,24.956,113.365,28.361L113.365,28.361z"/>
			<path fill="#FF9933" stroke="#BF7326" stroke-width="0.5043" d="M148.037,28.325c0,3.409,0.251,8.337-5.11,6.171h-8.067
				c-6.187,2.166-5.108-2.762-5.108-6.171l0,0c0-3.407-1.256-7.901,5.108-6.168h8.067C150.008,20.424,148.037,24.918,148.037,28.325
				L148.037,28.325z"/>
			<path fill="#FF9933" stroke="#BF7326" stroke-width="0.4778" d="M-4.112,27.882c0,3.408-0.97,7.256,4.578,6.172h7.229
				c4.895,2.164,4.578-2.764,4.578-6.172l0,0c0-3.406,1.12-7.251-4.578-6.169H4.052H0.466C-5.885,19.766-4.112,24.476-4.112,27.882
				L-4.112,27.882z"/>
			<path fill="#FF9933" stroke="#BF7326" stroke-width="0.5043" d="M166.675,27.846c0,3.408,0.253,8.337-5.109,6.171h-8.068
				c-6.185,2.166-5.11-2.763-5.11-6.171l0,0c0-3.407-1.253-7.899,5.11-6.169h8.068C168.648,19.946,166.675,24.438,166.675,27.846
				L166.675,27.846z"/>
		</g>
		<g id="nuclei_21_">
			<ellipse fill="#FFC285" cx="21.045" cy="30.755" rx="5.681" ry="1.375"/>
			<ellipse fill="#FFC285" cx="39.049" cy="31.418" rx="5.681" ry="1.374"/>
			<ellipse fill="#FFC285" cx="120.999" cy="32.13" rx="5.681" ry="1.374"/>
			<ellipse fill="#FFC285" cx="138.604" cy="31.649" rx="5.682" ry="1.373"/>
			<ellipse fill="#FFC285" cx="3.524" cy="31.65" rx="5.682" ry="1.373"/>
			<ellipse fill="#FFC285" cx="157.242" cy="31.17" rx="5.682" ry="1.373"/>
		</g>
	</g>
	<g id="Epidermis_3_" clip-path="url(#SVGID_2_)">
		<g id="cyto_24_">
			<path fill="#FF9933" stroke="#BF7326" stroke-width="0.5956" d="M20.176,15.934c0,2.956,0,6.852-5.507,5.351H5.975
				c-6.472,1.314-5.506-2.395-5.506-5.351l0,0c0-2.954-1.158-5.747,5.506-5.349h8.694C20.176,9.081,20.176,12.979,20.176,15.934
				L20.176,15.934z"/>
			<path fill="#FF9933" stroke="#BF7326" stroke-width="0.5956" d="M43.452,15.964c0,2.955,1.348,6.291-6.363,5.35H27.042
				c-6.801,1.878-6.361-2.395-6.361-5.35l0,0c0-2.955-1.558-6.289,6.361-5.351h10.046C45.915,8.923,43.452,13.009,43.452,15.964
				L43.452,15.964z"/>
			<path fill="#FF9933" stroke="#BF7326" stroke-width="0.5956" d="M67.977,15.964c0,2.956,0,6.853-6.735,5.352H50.599
				c-7.917,1.314-6.736-2.396-6.736-5.352l0,0c0-2.954-1.419-5.746,6.736-5.349h10.643C67.977,9.114,67.977,13.01,67.977,15.964
				L67.977,15.964z"/>
			<path fill="#FF9933" stroke="#BF7326" stroke-width="0.5956" d="M91.254,15.997c0,2.954,1.344,6.289-6.363,5.349H74.844
				c-6.801,1.879-6.361-2.395-6.361-5.349l0,0c0-2.957-1.557-6.29,6.361-5.352h10.047C93.716,8.954,91.254,13.04,91.254,15.997
				L91.254,15.997z"/>
			<path fill="#FF9933" stroke="#BF7326" stroke-width="0.5956" d="M115.779,15.839c0,2.955,0,6.853-6.737,5.351H98.401
				c-7.919,1.315-6.736-2.396-6.736-5.351l0,0c0-2.955-1.419-5.747,6.736-5.35h10.641C115.779,8.986,115.779,12.884,115.779,15.839
				L115.779,15.839z"/>
			<path fill="#FF9933" stroke="#BF7326" stroke-width="0.5956" d="M139.056,15.869c0,2.956,1.347,6.291-6.364,5.351h-10.047
				c-6.8,1.879-6.362-2.395-6.362-5.351l0,0c0-2.954-1.555-6.29,6.362-5.349h10.047C141.517,8.831,139.056,12.915,139.056,15.869
				L139.056,15.869z"/>
			<path fill="#FF9933" stroke="#BF7326" stroke-width="0.5956" d="M163.58,15.869c0,2.957,0,6.853-6.736,5.352h-10.642
				c-7.919,1.314-6.736-2.395-6.736-5.352l0,0c0-2.953-1.419-5.745,6.736-5.349h10.642C163.58,9.018,163.58,12.916,163.58,15.869
				L163.58,15.869z"/>
		</g>
		<g id="nuclei_20_">
			<ellipse fill="#FFC285" cx="9.884" cy="17.343" rx="6.353" ry="1.537"/>
			<ellipse fill="#FFC285" cx="54.751" cy="18.88" rx="6.354" ry="1.537"/>
			<ellipse fill="#FFC285" cx="149.969" cy="17.565" rx="6.353" ry="1.537"/>
			<ellipse fill="#FFC285" cx="129.946" cy="18.88" rx="6.353" ry="1.537"/>
			<ellipse fill="#FFC285" cx="100.468" cy="17.343" rx="6.353" ry="1.537"/>
			<ellipse fill="#FFC285" cx="80.398" cy="17.343" rx="6.353" ry="1.537"/>
			<ellipse fill="#FFC285" cx="35.638" cy="17.343" rx="6.352" ry="1.537"/>
		</g>
	</g>
	<g id="Placode_4_" clip-path="url(#SVGID_2_)">
		<g id="cyto_26_">
			<path fill="#CC3333" stroke="#992626" stroke-width="0.5212" d="M61.035,28.975c0,3.944,0.782,8.399-3.689,7.144h-5.822
				c-6.059-1.777-3.688-3.199-3.688-7.144l0,0c0-3.948-0.902-8.399,3.688-7.146h5.822C62.461,19.571,61.035,25.026,61.035,28.975
				L61.035,28.975z"/>
			<path fill="#CC3333" stroke="#992626" stroke-width="0.5094" d="M74.078,29.672c0,4.409,0.205,9.942-3.555,7.982h-5.605
				c-4.548,0.546-3.554-3.573-3.554-7.982l0,0c0-4.407-1.247-9.94,3.554-7.979h5.605C75.571,21.149,74.078,25.265,74.078,29.672
				L74.078,29.672z"/>
			<path fill="#CC3333" stroke="#992626" stroke-width="0.4923" d="M86.239,29.163c0,4.117,0.19,9.439-3.618,9.135l-4.969-0.033
				c-4.184,0.51-3.107-4.984-3.107-9.102l0,0c0-4.119-0.891-7.835,3.267-7.455h5.16C87.587,23.123,86.239,25.044,86.239,29.163
				L86.239,29.163z"/>
			<path fill="#CC3333" stroke="#992626" stroke-width="0.5212" d="M99.672,28.975c0,3.944-0.783,8.399,3.688,7.144h5.824
				c6.057-1.777,3.686-3.199,3.686-7.144l0,0c0-3.948,0.903-8.399-3.686-7.146h-5.824C98.242,19.571,99.672,25.026,99.672,28.975
				L99.672,28.975z"/>
			<path fill="#CC3333" stroke="#992626" stroke-width="0.5094" d="M86.629,29.672c0,4.409-0.205,9.942,3.554,7.982h5.607
				c4.546,0.546,3.552-3.573,3.552-7.982l0,0c0-4.407,1.245-9.94-3.552-7.979h-5.607C85.134,21.149,86.629,25.265,86.629,29.672
				L86.629,29.672z"/>
		</g>
		<g id="nuclei_22_">
			<circle fill="#E08585" cx="54.412" cy="31.392" r="3.127"/>
			<ellipse fill="#E08585" cx="106.058" cy="31.798" rx="3.128" ry="2.615"/>
			<ellipse fill="#E08585" cx="92.713" cy="32.571" rx="2.537" ry="2.883"/>
			<path fill="#E08585" d="M82.638,32.669c0,1.539-1.219,2.785-2.721,2.785c-1.5,0-2.718-1.246-2.718-2.785
				c0-1.542,1.218-2.789,2.718-2.789C81.419,29.88,82.638,31.127,82.638,32.669z"/>
			<path fill="#E08585" d="M70.65,32.533c0,1.616-1.361,2.921-3.04,2.921c-1.678,0-3.04-1.305-3.04-2.921
				c0-1.614,1.362-2.921,3.04-2.921C69.289,29.612,70.65,30.919,70.65,32.533z"/>
		</g>
	</g>
	<g id="Mc" clip-path="url(#SVGID_2_)">
		<path fill="#CCCC33" stroke="#999926" stroke-width="0.6717" d="M141.617,19.415c-1.363,3.391-3.351,6.052-7.817,4.994
			l-6.155,3.718c-6.332,0,2.318-2.222,2.318-5.554l0.129-1.667c1.967-4.708,4.359-4.957,9.223-3.225l5.954-1.732
			C151.368,16.641,141.617,19.415,141.617,19.415z"/>
		
			<ellipse transform="matrix(0.9729 -0.2313 0.2313 0.9729 -1.2142 31.9408)" fill="#E0E085" cx="135.598" cy="21.148" rx="3.582" ry="1.733"/>
	</g>
	<g id="DC_x2F_Sch" display="none" clip-path="url(#SVGID_2_)">
		<path display="inline" fill="#66C2A3" stroke="#66C2A3" stroke-width="0.8955" d="M71.829,71.938
			c3.151,2.094,5.319,2.702,6.751,3.253c-0.282-0.223-1.913-2.049-3.298-4.795c-1.093-3.735-0.73-5.195-8.274-7.211
			c-1.592-0.744-3.867-2.604-4.782-4.459c-0.401,0.307,1.092,2.699,2.604,5.666C66.766,67.361,69.896,70.654,71.829,71.938z"/>
		
			<ellipse transform="matrix(-0.1742 0.9847 -0.9847 -0.1742 149.5999 9.514)" display="inline" fill="#99D6C2" cx="70.811" cy="67.487" rx="1.601" ry="1.857"/>
		<path display="inline" fill="#66C2A3" stroke="#66C2A3" stroke-width="0.8955" d="M122.115,68.964
			c3.283-0.564,4.672-4.195,5.032-3.297c0.354,0.873-1.098,4.279-3.734,6.113c-0.967,2.07-1.941,3.336-3.978,4.215
			c-1.467,0.446-4.141,0.727-7.061,0.615c-7.595-0.545-2.605,0.018-0.922-2.371c0.494-0.807,1.008-1.462,1.424-2.115
			c1.131-1.771,3.07-2.785,3.07-2.785C115.947,69.337,118.609,67.838,122.115,68.964z"/>
		
			<ellipse transform="matrix(0.3353 -0.9421 0.9421 0.3353 10.3263 159.9144)" display="inline" fill="#99D6C2" cx="118.492" cy="72.639" rx="2.05" ry="2.237"/>
	</g>
	<g id="Sch" clip-path="url(#SVGID_2_)">
		<path fill="#996699" stroke="#734D73" stroke-width="0.8955" d="M51.267,72.425c3.582,0.535,8.066-2.693,8.281-3.395
			c0.208-0.682-4.306,2.723-7.441,1.207c-1.258-2.529-5.568-4.779-12.823-3.928c-3.436-0.492-6.265-3.018-6.474-2.336
			c-0.208,0.68,2.172,3.131,5.257,4.633c2.511,2.41,6.419,3.609,6.419,3.609S47.77,73.222,51.267,72.425z"/>
		
			<ellipse transform="matrix(0.9808 0.1949 -0.1949 0.9808 14.4395 -7.4324)" fill="#C2A3C2" cx="44.982" cy="69.647" rx="3.812" ry="1.065"/>
		<path fill="#996699" stroke="#734D73" stroke-width="0.8955" d="M116.587,61.746c-3.607,0.324-5.88,0.947-7.749,3.215
			c-0.041,0.711,4.044-1.625,7.449-0.891c1.819,2.16,6.539,3.328,13.388,0.789c3.455-0.332,6.8,1.453,6.843,0.742
			c0.041-0.709-2.851-2.531-6.202-3.262c-3.009-1.75-7.09-1.992-7.09-1.992S119.797,60.146,116.587,61.746z"/>
		
			<ellipse transform="matrix(-0.9991 0.0423 -0.0423 -0.9991 249.252 120.6533)" fill="#C2A3C2" cx="123.351" cy="62.961" rx="3.812" ry="1.064"/>
	</g>
</g>
<g id="Cartoon_path_and_text">
	<rect x="1.663" y="1.774" fill="none" stroke="#929497" stroke-width="1" width="157.225" height="74.063"/>
	<text transform="matrix(1 0 0 1 3.3506 18.2852)" font-family="'ArialMT'" font-size="10">Epidermis (Epi)</text>
	<text transform="matrix(1 0 0 1 51.8027 32.2822)" font-family="'ArialMT'" font-size="10">Placode (Pc)</text>
	<text transform="matrix(1 0 0 1 82.6528 13.2764)" font-family="'ArialMT'" font-size="10">Melanocyte (Mc)</text>
	<text transform="matrix(1 0 0 1 63.812 49.2842)"><tspan x="0" y="0" font-family="'ArialMT'" font-size="10">Dermal</tspan><tspan x="0" y="8" font-family="'ArialMT'" font-size="10">Condensate (DC)</tspan></text>
	<text transform="matrix(1 0 0 1 3.1128 54.3867)"><tspan x="0" y="0" font-family="'ArialMT'" font-size="10">Fibroblasts</tspan><tspan x="0" y="8" font-family="'ArialMT'" font-size="10">    (Fb)</tspan></text>
	<text transform="matrix(1 0 0 1 59.6187 72.9268)" font-family="'ArialMT'" font-size="10">Schwann cells (Sch)</text>
	<text transform="matrix(1 0 0 1 1.3335 87.5938)" font-family="'ArialMT'" font-size="10">DC/Sch: </text>
	<text transform="matrix(1 0 0 1 41.3433 87.5938)" font-family="'ArialMT'" font-size="9">DC and Sch cells</text>
	<text transform="matrix(1 0 0 1 1.3335 96.5938)" font-family="'ArialMT'" font-size="10">EC/SM:  </text>
	<text transform="matrix(1 0 0 1 41.3384 96.5938)" font-family="'ArialMT'" font-size="9">un-labeled dermal cells</text>
	<text transform="matrix(1 0 0 1 133.8872 96.5938)" font-family="'ArialMT'" font-size="10"> </text>
	<text transform="matrix(0.9 0 0 1 1.3335 104.5938)" font-family="'ArialMT'" font-size="9">enriched for endothelial and smooth muscle</text>
</g>
</svg>
